<?xml version="1.0" encoding="UTF-8"?>
<svg version="1.1" xmlns="http://www.w3.org/2000/svg" width="345" height="292">
    <path
        d="M0 0 C113.85 0 227.7 0 345 0 C345 96.36 345 192.72 345 292 C231.15 292 117.3 292 0 292 C0 195.64 0 99.28 0 0 Z "
        fill="#2F4152" transform="translate(0,0)" />
    <path
        d="M0 0 C29.7 0 59.4 0 90 0 C90 12.87 90 25.74 90 39 C60.3 39 30.6 39 0 39 C0 26.13 0 13.26 0 0 Z "
        fill="#E4E9EA" transform="translate(128,229)" />
    <path
        d="M0 0 C29.7 0 59.4 0 90 0 C90 12.87 90 25.74 90 39 C60.3 39 30.6 39 0 39 C0 26.13 0 13.26 0 0 Z "
        fill="#E4E9EA" transform="translate(128,126)" />
    <path
        d="M0 0 C29.7 0 59.4 0 90 0 C90 12.87 90 25.74 90 39 C60.3 39 30.6 39 0 39 C0 26.13 0 13.26 0 0 Z "
        fill="#E5E9EA" transform="translate(128,75)" />
    <path
        d="M0 0 C29.7 0 59.4 0 90 0 C90 12.87 90 25.74 90 39 C60.3 39 30.6 39 0 39 C0 26.13 0 13.26 0 0 Z "
        fill="#1AB798" transform="translate(128,24)" />
    <path
        d="M0 0 C29.7 0 59.4 0 90 0 C90 12.87 90 25.74 90 39 C60.3 39 30.6 39 0 39 C0 26.13 0 13.26 0 0 Z "
        fill="#1AB798" transform="translate(26,24)" />
    <path
        d="M0 0 C0.82862045 0.00359528 1.65724091 0.00719055 2.51097107 0.01089478 C3.81329178 0.01067574 3.81329178 0.01067574 5.141922 0.01045227 C8.02594967 0.01115171 10.9099136 0.01894554 13.79393005 0.02676392 C15.78790247 0.02862799 17.78187535 0.03005194 19.77584839 0.03105164 C25.03498082 0.03487769 30.29408583 0.04470871 35.5532074 0.05575562 C41.85739831 0.06776201 48.16159836 0.07237156 54.46579742 0.07820892 C64.05305865 0.08792042 73.64025965 0.10707637 83.2275238 0.12442017 C83.2275238 12.99442017 83.2275238 25.86442017 83.2275238 39.12442017 C53.5275238 39.12442017 23.8275238 39.12442017 -6.7724762 39.12442017 C-6.7724762 0.0124093 -6.7724762 0.0124093 0 0 Z "
        fill="#1AB798" transform="translate(236.77247619628906,23.875579833984375)" />
    <path
        d="M0 0 C29.7 0 59.4 0 90 0 C90 12.54 90 25.08 90 38 C60.3 38 30.6 38 0 38 C0 25.46 0 12.92 0 0 Z "
        fill="#E7EBED" transform="translate(128,178)" />
    <path
        d="M0 0 C29.37 0 58.74 0 89 0 C89 12.54 89 25.08 89 38 C59.63 38 30.26 38 0 38 C0 25.46 0 12.92 0 0 Z "
        fill="#E8EDEE" transform="translate(231,229)" />
    <path
        d="M0 0 C29.37 0 58.74 0 89 0 C89 12.54 89 25.08 89 38 C59.63 38 30.26 38 0 38 C0 25.46 0 12.92 0 0 Z "
        fill="#E8EDEE" transform="translate(26,229)" />
    <path
        d="M0 0 C29.37 0 58.74 0 89 0 C89 12.54 89 25.08 89 38 C59.63 38 30.26 38 0 38 C0 25.46 0 12.92 0 0 Z "
        fill="#E8ECEE" transform="translate(231,178)" />
    <path
        d="M0 0 C29.37 0 58.74 0 89 0 C89 12.54 89 25.08 89 38 C59.63 38 30.26 38 0 38 C0 25.46 0 12.92 0 0 Z "
        fill="#E8ECEE" transform="translate(26,178)" />
    <path
        d="M0 0 C29.37 0 58.74 0 89 0 C89 12.54 89 25.08 89 38 C59.63 38 30.26 38 0 38 C0 25.46 0 12.92 0 0 Z "
        fill="#E8ECEE" transform="translate(231,127)" />
    <path
        d="M0 0 C29.37 0 58.74 0 89 0 C89 12.54 89 25.08 89 38 C59.63 38 30.26 38 0 38 C0 25.46 0 12.92 0 0 Z "
        fill="#E8ECEE" transform="translate(26,127)" />
    <path
        d="M0 0 C29.37 0 58.74 0 89 0 C89 12.54 89 25.08 89 38 C59.63 38 30.26 38 0 38 C0 25.46 0 12.92 0 0 Z "
        fill="#E8EDEE" transform="translate(231,76)" />
    <path
        d="M0 0 C29.37 0 58.74 0 89 0 C89 12.54 89 25.08 89 38 C59.63 38 30.26 38 0 38 C0 25.46 0 12.92 0 0 Z "
        fill="#E8EDEE" transform="translate(26,76)" />
    <path
        d="M0 0 C8.91 0 17.82 0 27 0 C23 3 23 3 19.75 4.1875 C13.46429778 6.74783991 7.77201046 12.87239793 5 19 C2.54548917 25.76714993 1.56406713 31.83150731 1.61904907 39.00534058 C1.6143691 39.96096929 1.60968913 40.916598 1.60486734 41.90118515 C1.59298314 45.07603255 1.60234889 48.25044302 1.61181641 51.42529297 C1.60774774 53.71268972 1.6024042 56.0000845 1.59588623 58.28747559 C1.58224054 64.48175573 1.58750043 70.67588552 1.59702349 76.87016821 C1.60463611 83.36414326 1.59756985 89.85810572 1.59286499 96.3520813 C1.58706232 107.95632844 1.5963682 119.5605072 1.611643 131.16474356 C1.62503861 141.66601517 1.62272181 152.16718723 1.60888672 162.66845703 C1.59279656 174.88696814 1.58687551 187.10540843 1.59572351 199.32392991 C1.60038959 205.78299289 1.60105435 212.24198746 1.59111404 218.70104599 C1.58241661 224.77666765 1.58851708 230.85210229 1.60579681 236.92770386 C1.60974718 239.15122289 1.60865262 241.3747578 1.60200882 243.59827042 C1.46945796 259.54276249 1.46945796 259.54276249 5 275 C5.66 275 6.32 275 7 275 C8.21090556 276.52847148 9.36855769 278.09930742 10.5 279.6875 C15.71685021 286.39623633 21.68074749 289.5666652 30 291 C30 291.33 30 291.66 30 292 C20.1 292 10.2 292 0 292 C0 195.64 0 99.28 0 0 Z "
        fill="#0A0F13" transform="translate(0,0)" />
    <path
        d="M0 0 C8.91 0 17.82 0 27 0 C23 3 23 3 19.75 4.1875 C13.18050524 6.86343644 8.26268919 12.86541727 5 19 C4.21778723 21.08502868 3.48867457 23.19071082 2.8125 25.3125 C2.46832031 26.38113281 2.12414062 27.44976563 1.76953125 28.55078125 C1.38861328 29.76314453 1.38861328 29.76314453 1 31 C0.67 31 0.34 31 0 31 C0 20.77 0 10.54 0 0 Z "
        fill="#010202" transform="translate(0,0)" />
    <path
        d="M0 0 C0.33 0 0.66 0 1 0 C1 9.57 1 19.14 1 29 C-8.24 29 -17.48 29 -27 29 C-24.12058058 27.08038705 -21.32640688 25.75363335 -18.1875 24.3125 C-12.75432653 21.61885187 -9.39672697 18.9705438 -6 14 C-5.2575 13.030625 -4.515 12.06125 -3.75 11.0625 C-1.63691298 7.36459771 -0.86054832 4.15931688 0 0 Z "
        fill="#020304" transform="translate(344,263)" />
    <path
        d="M0 0 C9.24 0 18.48 0 28 0 C28 9.24 28 18.48 28 28 C26.20099756 25.30149634 25.34863563 23.26932736 24.3125 20.25 C21.4451949 12.92125376 16.71252833 8.86478904 10 5 C10 4.34 10 3.68 10 3 C9.0925 2.87625 8.185 2.7525 7.25 2.625 C4 2 4 2 0 0 Z "
        fill="#020304" transform="translate(317,0)" />
</svg>